# xmcd
#
# Track frame offsets:
#	150
#	20237
#	32135
#	54480
#	72360
#	87082
#	104090
#	117892
#	135125
#	155712
#	170902
#	184252
#	198467
#	212860
#
# Disc length: 3375 seconds
#
# Revision: 0
# Processed by: cddbd v1.4PL0 Copyright (c) Steve Scherf et al.
# Submitted via: dBpowerAMP V4.0
#
DISCID=d10d2d0e
DTITLE=Various Artist - Sweet Home Alabama: Tribute to Lynyrd Skynyrd
DYEAR=1900
DGENRE=Bluegrass
TTITLE0=That Smell
TTITLE1=Saturday Night Special
TTITLE2=Sweet Home Alabama
TTITLE3=Things Goin' On
TTITLE4=I Know a Little
TTITLE5=You Got That Right
TTITLE6=Don't Aske Me No Questions
TTITLE7=Tuesday's Gone
TTITLE8=Call Me the Breeze
TTITLE9=Swamp Music 
TTITLE10=What's Your Name
TTITLE11=Needle and the Spoon
TTITLE12=Gimme Three Steps
TTITLE13=Free Bird
EXTD=
EXTT0=
EXTT1=
EXTT2=
EXTT3=
EXTT4=
EXTT5=
EXTT6=
EXTT7=
EXTT8=
EXTT9=
EXTT10=
EXTT11=
EXTT12=
EXTT13=
PLAYORDER=
